<svg width="13" height="12" viewBox="0 0 13 12" fill="none" xmlns="http://www.w3.org/2000/svg">
<path d="M11.7292 8.095C11.7292 9.915 10.643 11 8.82114 11H8.22552C7.95023 11 7.725 10.775 7.725 10.5V7.61501C7.725 7.48001 7.83511 7.36501 7.97025 7.36501L8.85117 7.35001C8.92124 7.34501 8.98131 7.29501 8.99633 7.22501L9.17151 6.27C9.18653 6.18 9.11645 6.095 9.02135 6.095L7.95524 6.11C7.81509 6.11 7.70499 6.00001 7.69998 5.86501L7.67996 4.64C7.67996 4.56 7.74502 4.49001 7.8301 4.49001L9.03135 4.47C9.11644 4.47 9.18152 4.40501 9.18152 4.32001L9.16149 3.12C9.16149 3.035 9.09643 2.97 9.01134 2.97L7.65993 2.99001C6.82907 3.00501 6.16839 3.685 6.1834 4.515L6.20842 5.89C6.21343 6.03 6.10332 6.14 5.96317 6.145L5.36254 6.155C5.27745 6.155 5.21239 6.21999 5.21239 6.30499L5.22741 7.255C5.22741 7.34 5.29247 7.405 5.37756 7.405L5.97819 7.395C6.11833 7.395 6.22844 7.505 6.23344 7.64L6.27849 10.49C6.28349 10.77 6.05826 11 5.77797 11H4.62677C2.80488 11 1.71875 9.915 1.71875 8.09V3.905C1.71875 2.085 2.80488 1 4.62677 1H8.82114C10.643 1 11.7292 2.085 11.7292 3.905V8.095Z" fill="#0000FF"/>
</svg>
