<svg width="13" height="12" viewBox="0 0 13 12" fill="none" xmlns="http://www.w3.org/2000/svg">
<path d="M5.23997 11H8.2431C10.7457 11 11.7467 10 11.7467 7.5V4.5C11.7467 2 10.7457 1 8.2431 1H5.23997C2.73737 1 1.73633 2 1.73633 4.5V7.5C1.73633 10 2.73737 11 5.23997 11Z" stroke="#D349D3" stroke-width="1.5" stroke-linecap="round" stroke-linejoin="round"/>
<path d="M6.74157 7.75C7.70907 7.75 8.49339 6.9665 8.49339 6C8.49339 5.0335 7.70907 4.25 6.74157 4.25C5.77406 4.25 4.98975 5.0335 4.98975 6C4.98975 6.9665 5.77406 7.75 6.74157 7.75Z" stroke="#D349D3" stroke-width="1.5" stroke-linecap="round" stroke-linejoin="round"/>
<path d="M9.56253 3.5H9.56831" stroke="#D349D3" stroke-width="1.5" stroke-linecap="round" stroke-linejoin="round"/>
</svg>
