<svg width="11" height="8" viewBox="0 0 11 8" fill="none" xmlns="http://www.w3.org/2000/svg">
<path d="M1.10114 8C0.825853 8 0.590191 7.90208 0.394154 7.70625C0.198116 7.51042 0.100098 7.275 0.100098 7V1C0.100098 0.725 0.198116 0.489583 0.394154 0.29375C0.590191 0.0979167 0.825853 0 1.10114 0H9.10947C9.38476 0 9.62042 0.0979167 9.81646 0.29375C10.0125 0.489583 10.1105 0.725 10.1105 1V7C10.1105 7.275 10.0125 7.51042 9.81646 7.70625C9.62042 7.90208 9.38476 8 9.10947 8H1.10114ZM5.10531 4.5L1.10114 2V7H9.10947V2L5.10531 4.5ZM5.10531 3.5L9.10947 1H1.10114L5.10531 3.5ZM1.10114 2V1V7V2Z" fill="#F5BFC1"/>
</svg>
