<svg width="12" height="12" viewBox="0 0 12 12" fill="none" xmlns="http://www.w3.org/2000/svg">
<path d="M11.0115 8.46005V9.96005C11.0121 10.0993 10.9836 10.2371 10.9277 10.3647C10.8719 10.4923 10.79 10.6068 10.6872 10.701C10.5845 10.7951 10.4633 10.8668 10.3312 10.9114C10.1992 10.956 10.0592 10.9726 9.92041 10.96C8.38022 10.7929 6.90077 10.2671 5.60092 9.42505C4.39157 8.65738 3.36626 7.63313 2.59779 6.42505C1.7519 5.12065 1.22548 3.63555 1.06119 2.09005C1.04868 1.95178 1.06513 1.81243 1.10949 1.68086C1.15385 1.54929 1.22515 1.42839 1.31884 1.32586C1.41254 1.22333 1.52658 1.1414 1.6537 1.08531C1.78083 1.02922 1.91825 1.00018 2.05723 1.00005H3.55879C3.8017 0.99766 4.03718 1.08359 4.22136 1.24181C4.40554 1.40004 4.52584 1.61977 4.55983 1.86005C4.62321 2.34008 4.74075 2.81141 4.9102 3.26505C4.97754 3.44401 4.99211 3.63851 4.95219 3.82549C4.91227 4.01247 4.81953 4.1841 4.68496 4.32005L4.0493 4.95505C4.76182 6.20682 5.79935 7.24327 7.05243 7.95505L7.68809 7.32005C7.82417 7.18562 7.99598 7.09297 8.18316 7.0531C8.37034 7.01322 8.56504 7.02778 8.74419 7.09505C9.19829 7.26432 9.67012 7.38174 10.1506 7.44505C10.3938 7.47931 10.6158 7.60165 10.7746 7.7888C10.9333 7.97594 11.0176 8.21484 11.0115 8.46005Z" stroke="#F5BFC1" stroke-width="1.6" stroke-linecap="round" stroke-linejoin="round"/>
</svg>
